<svg width="32" height="32" viewBox="0 0 32 32" fill="none" xmlns="http://www.w3.org/2000/svg">
  <!-- Background circle -->
  <circle cx="16" cy="16" r="14" fill="#D7F64C"/>
  
  <!-- Mint leaf with serrated edges -->
  <path d="M16 4 C18 6, 20 8, 20 12 C20 16, 18 20, 16 22 C14 20, 12 16, 12 12 C12 8, 14 6, 16 4 Z" 
        fill="#FFFFFF" opacity="0.9"/>
  
  <!-- Leaf stem -->
  <path d="M16 22 L16 26" stroke="#D7F64C" stroke-width="1.5" opacity="0.8"/>
  
  <!-- Main vein -->
  <path d="M16 4 L16 22" stroke="#D7F64C" stroke-width="1.5" opacity="0.7"/>
  
  <!-- Secondary veins -->
  <path d="M14 8 C13 10, 13 12, 14 14" stroke="#D7F64C" stroke-width="1" opacity="0.6"/>
  <path d="M18 8 C19 10, 19 12, 18 14" stroke="#D7F64C" stroke-width="1" opacity="0.6"/>
  
  <!-- Leaf serrations -->
  <path d="M12 10 L13 10" stroke="#D7F64C" stroke-width="1" opacity="0.5"/>
  <path d="M20 10 L19 10" stroke="#D7F64C" stroke-width="1" opacity="0.5"/>
  <path d="M12 14 L13 14" stroke="#D7F64C" stroke-width="1" opacity="0.5"/>
  <path d="M20 14 L19 14" stroke="#D7F64C" stroke-width="1" opacity="0.5"/>
</svg> 