<svg width="64" height="64" viewBox="0 0 64 64" fill="none" xmlns="http://www.w3.org/2000/svg">
  <!-- Background circle with mint gradient -->
  <defs>
    <linearGradient id="mintGradient" x1="0%" y1="0%" x2="100%" y2="100%">
      <stop offset="0%" style="stop-color:#D7F64C;stop-opacity:1" />
      <stop offset="100%" style="stop-color:#B8E63A;stop-opacity:1" />
    </linearGradient>
    <filter id="shadow" x="-20%" y="-20%" width="140%" height="140%">
      <feDropShadow dx="0" dy="2" stdDeviation="3" flood-color="#000000" flood-opacity="0.1"/>
    </filter>
  </defs>
  
  <!-- Main circle background -->
  <circle cx="32" cy="32" r="28" fill="url(#mintGradient)" filter="url(#shadow)"/>
  
  <!-- Realistic peppermint leaf -->
  <g transform="translate(32, 32)">
    <!-- Main leaf shape with serrated edges -->
    <path d="M-12 -16 C-14 -12, -15 -6, -14 0 C-13 6, -10 12, -6 16 C-2 20, 2 20, 6 16 C10 12, 13 6, 14 0 C15 -6, 14 -12, 12 -16 L10 -14 C11 -10, 12 -6, 11 -2 C10 2, 8 6, 5 8 C2 10, -2 10, -5 8 C-8 6, -10 2, -11 -2 C-12 -6, -11 -10, -10 -14 Z" 
          fill="#FFFFFF" opacity="0.9"/>
    
    <!-- Leaf stem -->
    <path d="M0 16 L0 24" stroke="#D7F64C" stroke-width="2" opacity="0.8"/>
    
    <!-- Main vein -->
    <path d="M0 -16 L0 16" stroke="#D7F64C" stroke-width="1.5" opacity="0.7"/>
    
    <!-- Secondary veins -->
    <path d="M-8 -12 C-10 -8, -10 -4, -8 0" stroke="#D7F64C" stroke-width="1" opacity="0.6"/>
    <path d="M8 -12 C10 -8, 10 -4, 8 0" stroke="#D7F64C" stroke-width="1" opacity="0.6"/>
    <path d="M-6 -8 C-8 -4, -8 0, -6 4" stroke="#D7F64C" stroke-width="1" opacity="0.5"/>
    <path d="M6 -8 C8 -4, 8 0, 6 4" stroke="#D7F64C" stroke-width="1" opacity="0.5"/>
    
    <!-- Leaf texture details -->
    <path d="M-4 -12 C-6 -8, -6 -4, -4 0" stroke="#D7F64C" stroke-width="0.5" opacity="0.4"/>
    <path d="M4 -12 C6 -8, 6 -4, 4 0" stroke="#D7F64C" stroke-width="0.5" opacity="0.4"/>
  </g>
  
  <!-- Center highlight -->
  <circle cx="32" cy="32" r="3" fill="#FFFFFF" opacity="0.8"/>
  
  <!-- Subtle border -->
  <circle cx="32" cy="32" r="30" stroke="#D7F64C" stroke-width="1" opacity="0.3"/>
</svg> 