<svg width="128" height="128" viewBox="0 0 128 128" fill="none" xmlns="http://www.w3.org/2000/svg">
  <!-- Definitions for gradients and effects -->
  <defs>
    <linearGradient id="mintGradient" x1="0%" y1="0%" x2="100%" y2="100%">
      <stop offset="0%" style="stop-color:#D7F64C;stop-opacity:1" />
      <stop offset="50%" style="stop-color:#C4E83A;stop-opacity:1" />
      <stop offset="100%" style="stop-color:#B8E63A;stop-opacity:1" />
    </linearGradient>
    <linearGradient id="whiteGradient" x1="0%" y1="0%" x2="100%" y2="100%">
      <stop offset="0%" style="stop-color:#FFFFFF;stop-opacity:1" />
      <stop offset="100%" style="stop-color:#F8F8F8;stop-opacity:1" />
    </linearGradient>
    <filter id="shadow" x="-20%" y="-20%" width="140%" height="140%">
      <feDropShadow dx="0" dy="4" stdDeviation="6" flood-color="#000000" flood-opacity="0.15"/>
    </filter>
    <filter id="innerShadow" x="-50%" y="-50%" width="200%" height="200%">
      <feDropShadow dx="0" dy="2" stdDeviation="2" flood-color="#000000" flood-opacity="0.1"/>
    </filter>
  </defs>
  
  <!-- Background circle with gradient -->
  <circle cx="64" cy="64" r="60" fill="url(#mintGradient)" filter="url(#shadow)"/>
  
  <!-- Inner circle for depth -->
  <circle cx="64" cy="64" r="52" fill="url(#mintGradient)" opacity="0.8"/>
  
  <!-- Main peppermint leaf -->
  <g transform="translate(64, 64)">
    <!-- Leaf shape -->
    <path d="M-16 -24 C-24 -16, -28 -4, -24 8 C-20 20, -12 28, 0 32 C12 28, 20 20, 24 8 C28 -4, 24 -16, 16 -24 C8 -32, -8 -32, -16 -24 Z" 
          fill="url(#whiteGradient)" filter="url(#innerShadow)"/>
    
    <!-- Leaf vein -->
    <path d="M0 -24 L0 32" stroke="#D7F64C" stroke-width="3" opacity="0.8"/>
    
    <!-- Secondary veins -->
    <path d="M-12 -16 C-16 -8, -16 0, -12 8" stroke="#D7F64C" stroke-width="2" opacity="0.6"/>
    <path d="M12 -16 C16 -8, 16 0, 12 8" stroke="#D7F64C" stroke-width="2" opacity="0.6"/>
    
    <!-- Additional leaf details -->
    <path d="M-8 -20 C-12 -12, -12 -4, -8 4" stroke="#D7F64C" stroke-width="1.5" opacity="0.4"/>
    <path d="M8 -20 C12 -12, 12 -4, 8 4" stroke="#D7F64C" stroke-width="1.5" opacity="0.4"/>
  </g>
  
  <!-- Center highlight -->
  <circle cx="64" cy="64" r="6" fill="#FFFFFF" opacity="0.9"/>
  <circle cx="64" cy="64" r="4" fill="#D7F64C" opacity="0.8"/>
  
  <!-- Subtle border -->
  <circle cx="64" cy="64" r="60" stroke="#D7F64C" stroke-width="2" opacity="0.3"/>
</svg> 