<svg width="64" height="64" viewBox="0 0 64 64" fill="none" xmlns="http://www.w3.org/2000/svg">
  <!-- Background circle with mint gradient -->
  <defs>
    <linearGradient id="mintGradient" x1="0%" y1="0%" x2="100%" y2="100%">
      <stop offset="0%" style="stop-color:#D7F64C;stop-opacity:1" />
      <stop offset="100%" style="stop-color:#B8E63A;stop-opacity:1" />
    </linearGradient>
    <filter id="shadow" x="-20%" y="-20%" width="140%" height="140%">
      <feDropShadow dx="0" dy="2" stdDeviation="3" flood-color="#000000" flood-opacity="0.1"/>
    </filter>
  </defs>
  
  <!-- Main circle background -->
  <circle cx="32" cy="32" r="28" fill="url(#mintGradient)" filter="url(#shadow)"/>
  
  <!-- Peppermint plant with multiple leaves -->
  <g transform="translate(32, 32)">
    <!-- Main stem -->
    <path d="M0 20 L0 28" stroke="#D7F64C" stroke-width="2" opacity="0.8"/>
    
    <!-- Center leaf -->
    <path d="M0 8 C2 6, 4 4, 6 6 C8 8, 8 12, 6 16 C4 18, 2 18, 0 16 C-2 18, -4 18, -6 16 C-8 12, -8 8, -6 6 C-4 4, -2 6, 0 8 Z" 
          fill="#FFFFFF" opacity="0.9"/>
    
    <!-- Left leaf -->
    <path d="M-8 12 C-10 10, -12 8, -14 10 C-16 12, -16 16, -14 20 C-12 22, -10 22, -8 20 C-6 22, -4 22, -2 20 C0 16, 0 12, -2 10 C-4 8, -6 10, -8 12 Z" 
          fill="#FFFFFF" opacity="0.8"/>
    
    <!-- Right leaf -->
    <path d="M8 12 C10 10, 12 8, 14 10 C16 12, 16 16, 14 20 C12 22, 10 22, 8 20 C6 22, 4 22, 2 20 C0 16, 0 12, 2 10 C4 8, 6 10, 8 12 Z" 
          fill="#FFFFFF" opacity="0.8"/>
    
    <!-- Small top leaves -->
    <path d="M-4 4 C-5 3, -6 2, -7 3 C-8 4, -8 6, -7 8 C-6 9, -5 9, -4 8 C-3 9, -2 9, -1 8 C0 6, 0 4, -1 3 C-2 2, -3 3, -4 4 Z" 
          fill="#FFFFFF" opacity="0.7"/>
    <path d="M4 4 C5 3, 6 2, 7 3 C8 4, 8 6, 7 8 C6 9, 5 9, 4 8 C3 9, 2 9, 1 8 C0 6, 0 4, 1 3 C2 2, 3 3, 4 4 Z" 
          fill="#FFFFFF" opacity="0.7"/>
    
    <!-- Leaf veins -->
    <path d="M0 8 L0 16" stroke="#D7F64C" stroke-width="1.5" opacity="0.7"/>
    <path d="M-8 12 L-8 20" stroke="#D7F64C" stroke-width="1" opacity="0.6"/>
    <path d="M8 12 L8 20" stroke="#D7F64C" stroke-width="1" opacity="0.6"/>
    <path d="M-4 4 L-4 8" stroke="#D7F64C" stroke-width="1" opacity="0.5"/>
    <path d="M4 4 L4 8" stroke="#D7F64C" stroke-width="1" opacity="0.5"/>
  </g>
  
  <!-- Center highlight -->
  <circle cx="32" cy="32" r="3" fill="#FFFFFF" opacity="0.8"/>
  
  <!-- Subtle border -->
  <circle cx="32" cy="32" r="30" stroke="#D7F64C" stroke-width="1" opacity="0.3"/>
</svg> 