<svg width="64" height="64" viewBox="0 0 64 64" fill="none" xmlns="http://www.w3.org/2000/svg">
  <!-- Background circle with mint gradient -->
  <defs>
    <linearGradient id="mintGradient" x1="0%" y1="0%" x2="100%" y2="100%">
      <stop offset="0%" style="stop-color:#D7F64C;stop-opacity:1" />
      <stop offset="100%" style="stop-color:#B8E63A;stop-opacity:1" />
    </linearGradient>
    <filter id="shadow" x="-20%" y="-20%" width="140%" height="140%">
      <feDropShadow dx="0" dy="2" stdDeviation="3" flood-color="#000000" flood-opacity="0.1"/>
    </filter>
  </defs>
  
  <!-- Main circle background -->
  <circle cx="32" cy="32" r="28" fill="url(#mintGradient)" filter="url(#shadow)"/>
  
  <!-- Peppermint leaf design -->
  <g transform="translate(32, 32)">
    <!-- Main leaf shape -->
    <path d="M-8 -12 C-12 -8, -14 -2, -12 4 C-10 10, -6 14, 0 16 C6 14, 10 10, 12 4 C14 -2, 12 -8, 8 -12 C4 -16, -4 -16, -8 -12 Z" 
          fill="#FFFFFF" opacity="0.9"/>
    
    <!-- Leaf vein -->
    <path d="M0 -12 L0 16" stroke="#D7F64C" stroke-width="1.5" opacity="0.7"/>
    
    <!-- Secondary leaf details -->
    <path d="M-6 -8 C-8 -4, -8 0, -6 4" stroke="#D7F64C" stroke-width="1" opacity="0.5"/>
    <path d="M6 -8 C8 -4, 8 0, 6 4" stroke="#D7F64C" stroke-width="1" opacity="0.5"/>
  </g>
  
  <!-- Center dot -->
  <circle cx="32" cy="32" r="3" fill="#FFFFFF" opacity="0.8"/>
  
  <!-- Subtle border -->
  <circle cx="32" cy="32" r="30" stroke="#D7F64C" stroke-width="1" opacity="0.3"/>
</svg> 